<?xml version="1.0" encoding="UTF-8"?>
<svg width="125px" height="40px" viewBox="0 0 125 40" version="1.1"
	 xmlns="http://www.w3.org/2000/svg"
>
	<defs>
		<linearGradient x1="61.5370404%" y1="13%" x2="34.2376801%" y2="129.365079%" id="linearGradient-1">
			<stop stop-color="#EF7829" offset="0%"/>
			<stop stop-color="#F0692A" offset="28%"/>
			<stop stop-color="#F15E2C" offset="63%"/>
			<stop stop-color="#F15A2C" offset="100%"/>
		</linearGradient>
	</defs>

	<g id="Shape">
		<rect width="125px" height="40px" rx="5px" ry="5px" fill="white" />
		<g id="icons/boosty_logo" transform="translate(5, 4) scale(0.8)">
			<path d="m138.12 13.149-6.117 9.482-.605-9.482h-8.822c.809-2.783 1.461-5.016 1.461-5.016l.345-1.115h-6.75l-.319 1.115-1.462 5.016h-7.19c-5.91 0-9.237 1.679-10.61 4.855-.796-2.904-3.43-4.855-7.473-4.855a13.4 13.4 0 0 0-8.923 3.355c-1.19-2.049-3.549-3.353-6.843-3.353a13.4 13.4 0 0 0-9.404 3.797c-1.098-2.292-3.554-3.8-7.082-3.8-1.167.003-2.33.155-3.459.452l.53-1.827a.5.5 0 0 1 .035-.084L56.79 7h-6.724L45.78 21.734q-.168.443-.3.897c-.19.644-.318 1.305-.382 1.973-.56 4.11 1.25 7.212 6.268 7.423q.723.086 1.451.085a13.64 13.64 0 0 0 9.302-3.807c1.037 2.31 3.449 3.807 7.178 3.807a13.6 13.6 0 0 0 8.812-3.358c1.14 2.05 3.477 3.358 6.952 3.358h16.857c5.225 0 8.177-1.027 9.713-3.258 0 2.128 1.22 3.258 4.31 3.258 2.497 0 5.836-.547 10.425-1.674l-6.679 9.483h6.724l18.435-26.772zM58.93 22.63c-.629 2.16-2.652 3.902-4.51 3.902-1.856 0-2.853-1.742-2.225-3.902s2.653-3.904 4.496-3.904 2.868 1.737 2.239 3.904m16.485 0c-.628 2.16-2.652 3.902-4.509 3.902s-2.83-1.742-2.215-3.902 2.653-3.904 4.51-3.904 2.832 1.737 2.214 3.904m9.04 0c.629-2.162 2.653-3.904 4.496-3.904s2.857 1.742 2.228 3.904c-.628 2.163-2.586 3.852-4.421 3.905h-.152c-1.806-.053-2.771-1.774-2.15-3.905m21.671 3.227c-.34.792-2.994.673-3.66.683l-6.539-.005a12.4 12.4 0 0 0 1.966-3.905q.063-.212.114-.422c.703 1 2.194 1.903 5.093 2.476 2.764.531 3.268.37 3.026 1.173m6.65-2.134c-.573-2.228-3.056-3.102-6.536-3.524-1.456-.174-2.275-.243-2.092-.871.14-.489.87-.592 2.437-.592h7.645zm6.719.022c0-.045.655-2.266 1.456-5.016h4.266l.697 7.106c-7.026 1.492-7.201 1.09-6.419-2.09" fill="#242B2C" fill-rule="nonzero"/>
			<path d="M1.038 23.892 7.815 0h10.4l-2.103 7.407a1 1 0 0 0-.054.134L10.536 27.1h5.154A8850 8850 0 0 0 10.635 40c-9.507-.108-12.174-7.052-9.84-15.268zM10.673 40l12.535-18.4H17.89l4.627-11.786c7.942.846 11.665 7.215 9.476 14.916C29.643 33.016 20.13 40 10.866 40z" fill="url(#linearGradient-1)" fill-rule="nonzero"/>
		</g>
	</g>
</svg>